<svg id="Camada_1" data-name="Camada 1" xmlns="http://www.w3.org/2000/svg" viewBox="0 0 2000 1500"><defs><style>.cls-1{fill:#2b0040;}.cls-2{fill:#fff;}</style></defs><title>comvet_logo_vertical_branca_com_fundo_roxo_black</title><rect class="cls-1" width="2000" height="1500"/><path class="cls-2" d="M617.82,957.12c0-50.74,29.28-84.49,72.87-84.49,14.8,0,30.08,3.22,40.93,8.43a9.63,9.63,0,0,1,5.34,8.73v3.92A9.77,9.77,0,0,1,724.11,903a87.37,87.37,0,0,0-26-4.18c-28.39,0-47.61,23.47-47.61,58.56,0,35.54,19.44,59,48.5,59a80.12,80.12,0,0,0,26.93-5.14,9.72,9.72,0,0,1,13.08,9.16v4a9.68,9.68,0,0,1-5.21,8.67c-11.52,5.85-27.82,9.49-42.62,9.49C647.1,1042.5,617.82,1008.3,617.82,957.12Z"/><path class="cls-2" d="M746.07,979.91c0-37.32,23.25-62.36,58.11-62.36,34.65,0,57.9,25,57.9,62.36,0,37.56-23.25,62.59-57.9,62.59C769.32,1042.5,746.07,1017.47,746.07,979.91Zm84.49,0c0-21.68-10.51-36.43-26.6-36.43-15.87,0-26.6,14.75-26.6,36.43,0,21.91,10.73,36.44,26.6,36.44C820.05,1016.35,830.56,1001.82,830.56,979.91Z"/><path class="cls-2" d="M1052,962.26v68.24a9.77,9.77,0,0,1-9.76,9.77h-10.87a9.77,9.77,0,0,1-9.77-9.77V967.17c0-15.64-6.25-23.69-18.1-23.69-14.53,0-24.14,12.74-24.14,31.74v55.28a9.77,9.77,0,0,1-9.76,9.77H958.73a9.77,9.77,0,0,1-9.76-9.77V967.17c0-15.64-6.26-23.69-17.88-23.69-14.75,0-24.14,12.74-24.14,31.74v55.28a9.77,9.77,0,0,1-9.76,9.77H886.31a9.77,9.77,0,0,1-9.76-9.77v-101a9.76,9.76,0,0,1,9.76-9.76h6.87a9.77,9.77,0,0,1,9.66,8.31l1.88,12.48c8.49-15.2,22.79-23,38.44-23,16.54,0,27.49,7.38,32.63,21.46,8.94-14.08,23.7-21.46,40-21.46C1039.72,917.55,1052,933,1052,962.26Z"/><path class="cls-2" d="M1071.8,874.86h12.52a9.76,9.76,0,0,1,9.3,6.79l38.28,119.5,38.29-119.5a9.76,9.76,0,0,1,9.29-6.79H1192a9.77,9.77,0,0,1,9.2,13.06L1149,1033.79a9.76,9.76,0,0,1-9.2,6.48h-15.54a9.78,9.78,0,0,1-9.19-6.46l-52.43-145.88A9.76,9.76,0,0,1,1071.8,874.86Z"/><path class="cls-2" d="M1284.62,987.51h-65.78c2.23,19.45,14.52,29.73,36,29.73a96.63,96.63,0,0,0,20.57-2.22,9.71,9.71,0,0,1,11.51,11.36l-1.68,9c-10.28,4.47-23.91,7.15-38.67,7.15-36.66,0-59.23-23.69-59.23-62.14,0-37.77,23.25-62.81,57.89-62.81,29.5,0,49.17,23.92,49.17,59.69v.51A9.76,9.76,0,0,1,1284.62,987.51ZM1219.51,967h44.92c-1.11-15-8.71-24.14-20.78-24.14C1231.13,942.81,1222.63,951.75,1219.51,967Z"/><path class="cls-2" d="M1381.09,1027.16l-.83,4.65a9.84,9.84,0,0,1-7,7.71,82.74,82.74,0,0,1-22,3c-21,0-35.09-13.63-35.09-34V944.6h-10.13a9.76,9.76,0,0,1-9.76-9.77v-5.28a9.76,9.76,0,0,1,9.76-9.76h11.25l2.88-21.27a9.75,9.75,0,0,1,9.67-8.46h7a9.76,9.76,0,0,1,9.76,9.76v20h25.77a9.76,9.76,0,0,1,9.77,9.76v5.28a9.76,9.76,0,0,1-9.77,9.77h-25.77v57.45c0,8.49,5.81,14.3,14.53,14.3a71.11,71.11,0,0,0,9.16-.59A9.73,9.73,0,0,1,1381.09,1027.16Z"/><path class="cls-2" d="M1182.44,550.26v247H910.94a93.38,93.38,0,0,1-93.38-93.38V457.5h282.29a10.79,10.79,0,0,1,10.79,10.79h0a10.79,10.79,0,0,1-10.79,10.79H839.14V703.87a71.88,71.88,0,0,0,71.8,71.8h249.92V550.26a10.8,10.8,0,0,1,10.79-10.8h0A10.8,10.8,0,0,1,1182.44,550.26Z"/><path class="cls-2" d="M989.34,550.27V568.1a24.2,24.2,0,1,1-48.4,0V530.91a8.07,8.07,0,0,1,8.06-8.07h12.91A27.44,27.44,0,0,1,989.34,550.27Z"/><path class="cls-2" d="M1040.22,625c-2.62,7.86-8,15.14-22.69,21.3-26.52,11.12-33.62,37.32-31.62,56.38A52.46,52.46,0,0,0,995,726.83a3.24,3.24,0,0,1-2.64,5.1h-50a6.1,6.1,0,0,1-6.07-6.09v-5.55a37.64,37.64,0,0,1,4-16.76l2.57-5.1V663.32a49.86,49.86,0,0,1-13-33.73v-14.1a6.92,6.92,0,0,0-6.91-6.9h-9.71a28.87,28.87,0,0,1-28.87-28.77v-9.33a6.45,6.45,0,0,1,6.46-6.45h12.6a13.51,13.51,0,0,0,13.46-13.46,25.52,25.52,0,0,1,10-20.27,2.41,2.41,0,0,1,3.84,2v34.8A34.11,34.11,0,0,0,991,589a3.23,3.23,0,0,1,5.26.45,65.68,65.68,0,0,0,29.9,26.19l12.34,5.35A3.25,3.25,0,0,1,1040.22,625Z"/><path class="cls-2" d="M1115.61,612.62a30.27,30.27,0,0,1-2.09,11.64,20.52,20.52,0,0,1-16.25,12.87c-.15,0-.25,0-.34,0a2.37,2.37,0,0,0-1.9,3,31.62,31.62,0,0,0,3,6.56,37.33,37.33,0,0,1,4.71,16.89,40.07,40.07,0,0,1-8.35,26.06v20.48a25.13,25.13,0,0,1,2.91,1.55c5.59,3.4,8.64,8.45,8.64,14.27a6,6,0,0,1-5.92,5.93h-79.55a21.15,21.15,0,0,1-14.66-6,43.07,43.07,0,0,1-10.62-23.69c-1.66-15.87,4.17-37.61,26-46.79,25.73-10.77,28.44-26.3,30.68-38.78.38-2.09.72-4,1.16-5.82,2.62-11,9.42-16.26,13.3-18.45,4.51-10.82,15.09-15.48,20.82-16.55l.34,0,.73-.05a5.59,5.59,0,0,1,3.78,1.4,5.92,5.92,0,0,1,2.14,4.52V590c8.4,1.65,10.34,4.37,11,5.34.39.58,1.21,1.6,2.13,2.76C1113.09,605.58,1115.61,609.22,1115.61,612.62Z"/><path class="cls-2" d="M1043,555.53l-14.15.08,0-2.82a7.75,7.75,0,0,1,7.68-7.73H1043Z"/><path class="cls-2" d="M1043.08,579.78a7.63,7.63,0,0,1-7.63,7.68l-6.45,0,0-10.5,14.11,0Z"/><path class="cls-2" d="M1057.2,573.28l-14.14,0-14.13.05-6.44,0a7.7,7.7,0,0,1-7.73-7.64v-6.45l14.11-.07,14.15,0,6.45,0a7.69,7.69,0,0,1,7.68,7.68Z"/></svg>