<svg id="Camada_1" data-name="Camada 1" xmlns="http://www.w3.org/2000/svg" viewBox="0 0 2000 1500"><defs><style>.cls-1{fill:#2b0040;}.cls-2{fill:#fff;}</style></defs><title>comvet_simbolo_branca_com_fundo_roxo_black</title><rect class="cls-1" width="2000" height="1500"/><path class="cls-2" d="M1264.94,638V996.69H870.67a135.6,135.6,0,0,1-135.61-135.6V503.31h410A15.68,15.68,0,0,1,1160.68,519h0A15.68,15.68,0,0,1,1145,534.65H766.4V861.09A104.38,104.38,0,0,0,870.67,965.35H1233.6V638a15.66,15.66,0,0,1,15.67-15.67h0A15.67,15.67,0,0,1,1264.94,638Z"/><path class="cls-2" d="M984.52,638v25.9a35.15,35.15,0,0,1-70.29,0v-54a11.72,11.72,0,0,1,11.71-11.71h18.75A39.84,39.84,0,0,1,984.52,638Z"/><path class="cls-2" d="M1058.4,746.57c-3.79,11.41-11.66,22-32.94,30.93-38.52,16.14-48.83,54.2-45.93,81.87a76.22,76.22,0,0,0,13.24,35,4.7,4.7,0,0,1-3.84,7.41H916.34a8.86,8.86,0,0,1-8.81-8.84v-8.06a54.61,54.61,0,0,1,5.76-24.34l3.73-7.41v-51a72.41,72.41,0,0,1-18.87-49V732.74a10,10,0,0,0-10-10H874a41.92,41.92,0,0,1-41.92-41.78V667.39a9.36,9.36,0,0,1,9.37-9.37h18.3a19.61,19.61,0,0,0,19.55-19.54,37.06,37.06,0,0,1,14.48-29.43,3.49,3.49,0,0,1,5.57,2.83v50.55a49.54,49.54,0,0,0,87.5,31.84,4.7,4.7,0,0,1,7.64.66,95.39,95.39,0,0,0,43.42,38l17.92,7.77A4.71,4.71,0,0,1,1058.4,746.57Z"/><path class="cls-2" d="M1167.89,728.57a44.18,44.18,0,0,1-3,16.91,29.8,29.8,0,0,1-23.61,18.68c-.21,0-.35.07-.5.07a3.42,3.42,0,0,0-2.74,4.37,44.88,44.88,0,0,0,4.37,9.52,54.09,54.09,0,0,1,6.83,24.52c.57,13.54-3.52,26.29-12.12,37.85v29.75a35.71,35.71,0,0,1,4.23,2.25c8.1,4.94,12.54,12.27,12.54,20.73a8.62,8.62,0,0,1-8.59,8.59H1029.74a30.68,30.68,0,0,1-21.28-8.67A62.34,62.34,0,0,1,993,858.75c-2.39-23,6.06-54.63,37.71-68,37.36-15.64,41.3-38.2,44.55-56.31.56-3,1-5.85,1.69-8.46,3.8-15.93,13.67-23.61,19.31-26.78,6.55-15.72,21.92-22.49,30.24-24l.49-.07,1.06-.07a8.23,8.23,0,0,1,5.5,2,8.59,8.59,0,0,1,3.1,6.56v12.05c12.19,2.4,15,6.35,16,7.75.56.85,1.76,2.33,3.1,4C1164.23,718.35,1167.89,723.63,1167.89,728.57Z"/><path class="cls-2" d="M1062.44,645.67l-20.54.11,0-4.1A11.25,11.25,0,0,1,1053,630.46h9.37Z"/><path class="cls-2" d="M1062.56,680.88A11.09,11.09,0,0,1,1051.48,692l-9.37.07-.07-15.26,20.5-.07Z"/><path class="cls-2" d="M1083.06,671.44l-20.52,0-20.53.07-9.35,0a11.16,11.16,0,0,1-11.22-11.08v-9.37l20.48-.1,20.55-.07,9.37,0A11.17,11.17,0,0,1,1083,662.07Z"/></svg>