<svg id="Camada_1" data-name="Camada 1" xmlns="http://www.w3.org/2000/svg" viewBox="0 0 2000 1500"><defs><style>.cls-1{fill:#fff;}</style></defs><title>comvet_logo_vertical_branca_com_fundo_preto</title><rect width="2000" height="1500"/><path class="cls-1" d="M617.82,1053.94c0-10.31,5.5-17.2,13.67-17.2a19,19,0,0,1,9.62,2.54v2a18.18,18.18,0,0,0-9.31-2.54c-6.89,0-11.53,6.08-11.53,15.2s4.64,15.39,11.58,15.39a18.31,18.31,0,0,0,9.71-2.77v2a19.45,19.45,0,0,1-10.07,2.72C623.27,1071.23,617.82,1064.33,617.82,1053.94Z"/><path class="cls-1" d="M653.91,1035.37h2.18v35.41h-2.18Z"/><path class="cls-1" d="M670.47,1042.86l5.18-7.49h2.77l-5.9,7.49Zm.14,4.09h2.18v23.83h-2.18Z"/><path class="cls-1" d="M706.29,1055.75v15h-2.18v-14.53c0-5.17-2.14-7.85-6.27-7.85-5.08,0-8.44,3.5-8.44,8.81v13.57h-2.18V1047h1.91l.18,5.53c1.41-3.67,4.45-6,9.26-6C703.65,1046.49,706.29,1049.67,706.29,1055.75Z"/><path class="cls-1" d="M720.49,1035.37h2.27v6h-2.27Zm0,11.58h2.18v23.83h-2.18Z"/><path class="cls-1" d="M735.79,1058.84c0-7.4,4.17-12.35,10.48-12.35a15.09,15.09,0,0,1,6.77,1.59v2a14.75,14.75,0,0,0-6.54-1.64c-5,0-8.39,4.22-8.39,10.49s3.54,10.43,8.8,10.43a12.82,12.82,0,0,0,6.58-1.85v1.9a13.74,13.74,0,0,1-7,1.86C740.1,1071.23,735.79,1066.28,735.79,1058.84Z"/><path class="cls-1" d="M782.27,1054.85v15.93h-1.91l-.23-6.13a10,10,0,0,1-9.53,6.58c-4.54,0-6.85-2.27-6.85-6.63,0-4.63,3.13-7.17,8.8-7.12h7.54v-2.18c0-4.59-2.41-6.94-7-6.94a17.09,17.09,0,0,0-7.4,1.58v-1.86a17.49,17.49,0,0,1,7.77-1.59C779.27,1046.49,782.27,1049.35,782.27,1054.85Zm-2.18,5.08v-.82h-7.17c-4.45,0-6.86,1.86-6.86,5.36s1.77,5.08,5.22,5.08C775.41,1069.55,780.09,1066.1,780.09,1059.93Z"/><path class="cls-1" d="M810.5,1037.19H813l11.43,30.86,11.44-30.86h2.54l-12.89,33.59h-2.17Z"/><path class="cls-1" d="M865.6,1059.11H848.31c.18,6.72,3.36,10.26,9.26,10.26a15.88,15.88,0,0,0,7.13-1.63l-.32,2a17.5,17.5,0,0,1-7.26,1.54c-7.18,0-11.08-4.45-11.08-12.71,0-7.21,4.13-12,10.35-12,5.54,0,9.21,4.72,9.21,11.8Zm-17.24-1.63h15.06c-.09-5.54-2.94-9.12-7.12-9.12C851.76,1048.36,848.67,1051.94,848.36,1057.48Z"/><path class="cls-1" d="M890.11,1068.46l-.36,1.86a12.75,12.75,0,0,1-5,.91c-3.18,0-5.31-2-5.31-5v-17.43h-4.27V1047h4.31l.28-6.49h1.86V1047h8.12v1.86h-8.12v17a3.42,3.42,0,0,0,3.72,3.49A12.92,12.92,0,0,0,890.11,1068.46Z"/><path class="cls-1" d="M919.07,1059.11H901.78c.18,6.72,3.36,10.26,9.26,10.26a15.81,15.81,0,0,0,7.12-1.63l-.32,2a17.43,17.43,0,0,1-7.26,1.54c-7.17,0-11.07-4.45-11.07-12.71,0-7.21,4.13-12,10.35-12,5.54,0,9.21,4.72,9.21,11.8Zm-17.24-1.63h15.06c-.09-5.54-2.95-9.12-7.13-9.12C905.23,1048.36,902.14,1051.94,901.83,1057.48Z"/><path class="cls-1" d="M945.53,1046.49v2.27h-1.9c-5.77,0-9.63,4.09-9.63,10.22v11.8h-2.17V1047h1.9l.23,6.72c1.45-4.41,4.72-7.18,10-7.18Z"/><path class="cls-1" d="M956.79,1035.37h2.27v6h-2.27Zm.05,11.58H959v23.83h-2.17Z"/><path class="cls-1" d="M992.51,1055.75v15h-2.18v-14.53c0-5.17-2.13-7.85-6.26-7.85-5.08,0-8.45,3.5-8.45,8.81v13.57h-2.17V1047h1.9l.18,5.53c1.41-3.67,4.45-6,9.27-6C989.88,1046.49,992.51,1049.67,992.51,1055.75Z"/><path class="cls-1" d="M1023.24,1054.85v15.93h-1.91l-.22-6.13a10,10,0,0,1-9.54,6.58c-4.54,0-6.85-2.27-6.85-6.63,0-4.63,3.13-7.17,8.81-7.12h7.53v-2.18c0-4.59-2.41-6.94-7-6.94a17,17,0,0,0-7.4,1.58v-1.86a17.41,17.41,0,0,1,7.76-1.59C1020.24,1046.49,1023.24,1049.35,1023.24,1054.85Zm-2.18,5.08v-.82h-7.17c-4.45,0-6.86,1.86-6.86,5.36s1.77,5.08,5.23,5.08C1016.38,1069.55,1021.06,1066.1,1021.06,1059.93Zm-5.49-17.07h-2l5.17-7.49h2.77Z"/><path class="cls-1" d="M1051.11,1046.49v2.27h-1.91c-5.77,0-9.62,4.09-9.62,10.22v11.8h-2.18V1047h1.91l.22,6.72c1.46-4.41,4.72-7.18,10-7.18Z"/><path class="cls-1" d="M1062.37,1035.37h2.27v6h-2.27Zm0,11.58h2.18v23.83h-2.18Z"/><path class="cls-1" d="M1095.59,1054.85v15.93h-1.91l-.22-6.13a10,10,0,0,1-9.54,6.58c-4.54,0-6.85-2.27-6.85-6.63,0-4.63,3.13-7.17,8.81-7.12h7.53v-2.18c0-4.59-2.41-6.94-7-6.94a17,17,0,0,0-7.4,1.58v-1.86a17.41,17.41,0,0,1,7.76-1.59C1092.59,1046.49,1095.59,1049.35,1095.59,1054.85Zm-2.18,5.08v-.82h-7.17c-4.45,0-6.86,1.86-6.86,5.36s1.77,5.08,5.23,5.08C1088.73,1069.55,1093.41,1066.1,1093.41,1059.93Z"/><path class="cls-1" d="M1146.51,1059.11h-17.29c.18,6.72,3.36,10.26,9.26,10.26a15.85,15.85,0,0,0,7.13-1.63l-.32,2a17.46,17.46,0,0,1-7.26,1.54c-7.18,0-11.07-4.45-11.07-12.71,0-7.21,4.12-12,10.34-12,5.54,0,9.21,4.72,9.21,11.8Zm-17.24-1.63h15.07c-.1-5.54-2.95-9.12-7.13-9.12C1132.67,1048.36,1129.58,1051.94,1129.27,1057.48Z"/><path class="cls-1" d="M1201,1047.13c0,6.08-4,10.12-10.12,10.12H1181v13.53h-2.36v-33.59h12.25C1196.94,1037.19,1201,1041.18,1201,1047.13Zm-2.41.09c0-4.86-3.27-8.08-8.12-8.08H1181v16.16h9.53C1195.35,1055.3,1198.62,1052.08,1198.62,1047.22Z"/><path class="cls-1" d="M1231.17,1059.11h-17.3c.18,6.72,3.36,10.26,9.26,10.26a15.85,15.85,0,0,0,7.13-1.63l-.32,2a17.43,17.43,0,0,1-7.26,1.54c-7.17,0-11.07-4.45-11.07-12.71,0-7.21,4.12-12,10.34-12,5.54,0,9.22,4.72,9.22,11.8Zm-17.25-1.63H1229c-.09-5.54-3-9.12-7.13-9.12C1217.32,1048.36,1214.24,1051.94,1213.92,1057.48Z"/><path class="cls-1" d="M1255.67,1068.46l-.36,1.86a12.72,12.72,0,0,1-5,.91c-3.17,0-5.31-2-5.31-5v-17.43h-4.26V1047h4.31l.27-6.49h1.87V1047h8.12v1.86h-8.12v17a3.41,3.41,0,0,0,3.72,3.49A12.86,12.86,0,0,0,1255.67,1068.46Z"/><path class="cls-1" d="M1265.25,1069.87l-.31-1.82a26,26,0,0,0,8.35,1.41c4.18,0,6.94-1.82,6.94-4.63s-2.09-3.81-4.63-4.58l-4.31-1.27c-3.18-.91-5.77-2.55-5.77-6.18s3.23-6.31,8.08-6.31a22,22,0,0,1,7.13,1.45v1.82a19.91,19.91,0,0,0-6.85-1.5c-3.63,0-6.09,1.78-6.09,4.36s1.87,3.77,4.27,4.45l4.36,1.27c3.22,1,6,2.41,6,6.31s-3.59,6.58-9,6.58A23.47,23.47,0,0,1,1265.25,1069.87Z"/><path class="cls-1" d="M1314,1055.75v15h-2.18v-14.53c0-5.17-2.14-7.85-6.27-7.85-5,0-8.44,3.54-8.44,8.81v13.57h-2.18v-35.41h2.18v16.93c1.41-3.58,4.45-5.81,9.17-5.81C1311.32,1046.49,1314,1049.67,1314,1055.75Z"/><path class="cls-1" d="M1326.75,1058.89c0-7.45,4.27-12.4,10.67-12.4s10.62,5,10.62,12.4-4.26,12.34-10.62,12.34S1326.75,1066.28,1326.75,1058.89Zm19,0c0-6.27-3.36-10.49-8.35-10.49s-8.31,4.22-8.31,10.49,3.36,10.43,8.31,10.43S1345.73,1065.15,1345.73,1058.89Z"/><path class="cls-1" d="M1382.17,1058.93c0,7.35-4,12.3-10,12.3a9,9,0,0,1-9-6.13v15.66H1361V1047h2l.18,5.9a8.92,8.92,0,0,1,9-6.36C1378.18,1046.49,1382.17,1051.44,1382.17,1058.93Zm-2.31,0c0-6.31-3.31-10.53-8.31-10.53s-8.35,4.22-8.35,10.49,3.32,10.43,8.35,10.43S1379.86,1065.2,1379.86,1058.93Z"/><path class="cls-1" d="M617.82,918.86c0-50.74,29.28-84.5,72.87-84.5,14.8,0,30.08,3.23,40.93,8.44a9.63,9.63,0,0,1,5.34,8.72v3.93a9.76,9.76,0,0,1-12.85,9.24,87.68,87.68,0,0,0-26-4.17c-28.39,0-47.61,23.47-47.61,58.56,0,35.54,19.44,59,48.5,59A80.12,80.12,0,0,0,725.89,973,9.72,9.72,0,0,1,739,982.11v4a9.67,9.67,0,0,1-5.21,8.66c-11.52,5.86-27.82,9.5-42.62,9.5C647.1,1004.24,617.82,970,617.82,918.86Z"/><path class="cls-1" d="M746.07,941.65c0-37.33,23.25-62.36,58.11-62.36,34.65,0,57.9,25,57.9,62.36,0,37.55-23.25,62.59-57.9,62.59C769.32,1004.24,746.07,979.2,746.07,941.65Zm84.49,0c0-21.68-10.51-36.43-26.6-36.43-15.87,0-26.6,14.75-26.6,36.43,0,21.91,10.73,36.44,26.6,36.44C820.05,978.09,830.56,963.56,830.56,941.65Z"/><path class="cls-1" d="M1052,924v68.25a9.76,9.76,0,0,1-9.76,9.76h-10.87a9.76,9.76,0,0,1-9.77-9.76V928.91c0-15.65-6.25-23.69-18.1-23.69C989,905.22,979.37,918,979.37,937v55.28a9.76,9.76,0,0,1-9.76,9.76H958.73a9.76,9.76,0,0,1-9.76-9.76V928.91c0-15.65-6.26-23.69-17.88-23.69C916.34,905.22,907,918,907,937v55.28a9.76,9.76,0,0,1-9.76,9.76H886.31a9.76,9.76,0,0,1-9.76-9.76v-101a9.76,9.76,0,0,1,9.76-9.76h6.87a9.77,9.77,0,0,1,9.66,8.31l1.88,12.47c8.49-15.19,22.79-23,38.44-23,16.54,0,27.49,7.38,32.63,21.46,8.94-14.08,23.7-21.46,40-21.46C1039.72,879.29,1052,894.72,1052,924Z"/><path class="cls-1" d="M1071.8,836.6h12.52a9.76,9.76,0,0,1,9.3,6.79l38.28,119.5,38.29-119.5a9.76,9.76,0,0,1,9.29-6.79H1192a9.77,9.77,0,0,1,9.2,13.06L1149,995.53a9.77,9.77,0,0,1-9.2,6.47h-15.54a9.77,9.77,0,0,1-9.19-6.46l-52.43-145.87A9.76,9.76,0,0,1,1071.8,836.6Z"/><path class="cls-1" d="M1284.62,949.25h-65.78c2.23,19.45,14.52,29.73,36,29.73a96.63,96.63,0,0,0,20.57-2.22,9.71,9.71,0,0,1,11.51,11.36l-1.68,9c-10.28,4.47-23.91,7.15-38.67,7.15-36.66,0-59.23-23.69-59.23-62.14,0-37.78,23.25-62.81,57.89-62.81,29.5,0,49.17,23.92,49.17,59.68v.52A9.76,9.76,0,0,1,1284.62,949.25Zm-65.11-20.56h44.92c-1.11-15-8.71-24.14-20.78-24.14C1231.13,904.55,1222.63,913.49,1219.51,928.69Z"/><path class="cls-1" d="M1381.09,988.89l-.83,4.66a9.81,9.81,0,0,1-7,7.7,82.33,82.33,0,0,1-22,3c-21,0-35.09-13.63-35.09-34V906.34h-10.13a9.77,9.77,0,0,1-9.76-9.77v-5.28a9.76,9.76,0,0,1,9.76-9.76h11.25l2.88-21.28a9.75,9.75,0,0,1,9.67-8.45h7a9.76,9.76,0,0,1,9.76,9.76v20h25.77a9.76,9.76,0,0,1,9.77,9.76v5.28a9.77,9.77,0,0,1-9.77,9.77h-25.77v57.44c0,8.49,5.81,14.31,14.53,14.31a73,73,0,0,0,9.16-.59A9.73,9.73,0,0,1,1381.09,988.89Z"/><path class="cls-1" d="M1182.44,512V759H910.94a93.38,93.38,0,0,1-93.38-93.38V419.24h282.29A10.79,10.79,0,0,1,1110.64,430h0a10.79,10.79,0,0,1-10.79,10.79H839.14V665.61a71.87,71.87,0,0,0,71.8,71.79h249.92V512a10.79,10.79,0,0,1,10.79-10.79h0A10.79,10.79,0,0,1,1182.44,512Z"/><path class="cls-1" d="M989.34,512v17.83a24.2,24.2,0,0,1-48.4,0V492.65a8.06,8.06,0,0,1,8.06-8.07h12.91A27.44,27.44,0,0,1,989.34,512Z"/><path class="cls-1" d="M1040.22,586.75c-2.62,7.86-8,15.13-22.69,21.3-26.52,11.12-33.62,37.32-31.62,56.38A52.37,52.37,0,0,0,995,688.56a3.23,3.23,0,0,1-2.64,5.1h-50a6.09,6.09,0,0,1-6.07-6.08V682a37.71,37.71,0,0,1,4-16.77l2.57-5.09V625.06a49.86,49.86,0,0,1-13-33.73v-14.1a6.93,6.93,0,0,0-6.91-6.91h-9.71a28.87,28.87,0,0,1-28.87-28.77v-9.32a6.46,6.46,0,0,1,6.46-6.46h12.6a13.5,13.5,0,0,0,13.46-13.45,25.52,25.52,0,0,1,10-20.27,2.41,2.41,0,0,1,3.84,1.95v34.81A34.11,34.11,0,0,0,991,550.74a3.23,3.23,0,0,1,5.26.45,65.68,65.68,0,0,0,29.9,26.19l12.34,5.35A3.25,3.25,0,0,1,1040.22,586.75Z"/><path class="cls-1" d="M1115.61,574.35a30.36,30.36,0,0,1-2.09,11.65,20.49,20.49,0,0,1-16.25,12.86c-.15,0-.25,0-.34,0a2.36,2.36,0,0,0-1.9,3,31.38,31.38,0,0,0,3,6.55,37.38,37.38,0,0,1,4.71,16.89,40.08,40.08,0,0,1-8.35,26.07v20.48a25.13,25.13,0,0,1,2.91,1.55c5.59,3.4,8.64,8.45,8.64,14.27a6,6,0,0,1-5.92,5.92h-79.55a21.15,21.15,0,0,1-14.66-6A43,43,0,0,1,995.2,664c-1.66-15.87,4.17-37.62,26-46.79,25.73-10.77,28.44-26.31,30.68-38.78.38-2.09.72-4,1.16-5.82,2.62-11,9.42-16.26,13.3-18.45,4.51-10.82,15.09-15.48,20.82-16.55l.34-.05.73,0a5.6,5.6,0,0,1,3.78,1.41,5.92,5.92,0,0,1,2.14,4.52v8.3c8.4,1.65,10.34,4.36,11,5.33.39.59,1.21,1.61,2.13,2.77C1113.09,567.32,1115.61,571,1115.61,574.35Z"/><path class="cls-1" d="M1043,517.27l-14.15.08,0-2.82a7.74,7.74,0,0,1,7.68-7.73H1043Z"/><path class="cls-1" d="M1043.08,541.52a7.64,7.64,0,0,1-7.63,7.68l-6.45,0,0-10.51,14.11,0Z"/><path class="cls-1" d="M1057.2,535l-14.14,0-14.13.05h-6.44a7.69,7.69,0,0,1-7.73-7.63V521l14.11-.07,14.15-.05,6.45,0a7.69,7.69,0,0,1,7.68,7.68Z"/></svg>