<svg id="Camada_1" data-name="Camada 1" xmlns="http://www.w3.org/2000/svg" viewBox="0 0 2000 1500"><defs><style>.cls-1{fill:#fff;}.cls-2{fill:#8100bf;}.cls-3{fill:#56007f;}</style></defs><title>comvet_logo_horizontal_orignal</title><rect class="cls-1" width="2000" height="1500"/><path class="cls-2" d="M854.13,749.56c0-50.75,29.28-84.5,72.87-84.5,14.8,0,30.08,3.23,40.92,8.44a9.63,9.63,0,0,1,5.34,8.72v3.93a9.76,9.76,0,0,1-12.85,9.24,87.63,87.63,0,0,0-26-4.17c-28.38,0-47.61,23.47-47.61,58.56,0,35.54,19.45,59,48.51,59a79.94,79.94,0,0,0,26.93-5.15,9.74,9.74,0,0,1,13.08,9.17v4a9.66,9.66,0,0,1-5.22,8.66c-11.52,5.86-27.81,9.5-42.62,9.5C883.41,834.94,854.13,800.74,854.13,749.56Z"/><path class="cls-2" d="M982.38,772.35c0-37.33,23.24-62.36,58.11-62.36,34.65,0,57.89,25,57.89,62.36,0,37.55-23.24,62.59-57.89,62.59C1005.62,834.94,982.38,809.9,982.38,772.35Zm84.48,0c0-21.68-10.5-36.43-26.59-36.43-15.87,0-26.6,14.75-26.6,36.43,0,21.91,10.73,36.44,26.6,36.44C1056.36,808.79,1066.86,794.26,1066.86,772.35Z"/><path class="cls-2" d="M1288.32,754.69v68.25a9.76,9.76,0,0,1-9.77,9.76h-10.87a9.76,9.76,0,0,1-9.76-9.76V759.61c0-15.65-6.26-23.69-18.11-23.69-14.52,0-24.14,12.74-24.14,31.74v55.28a9.76,9.76,0,0,1-9.76,9.76H1195a9.76,9.76,0,0,1-9.76-9.76V759.61c0-15.65-6.26-23.69-17.89-23.69-14.75,0-24.14,12.74-24.14,31.74v55.28a9.76,9.76,0,0,1-9.76,9.76h-10.87a9.76,9.76,0,0,1-9.76-9.76V722a9.76,9.76,0,0,1,9.76-9.76h6.87a9.76,9.76,0,0,1,9.65,8.31L1141,733c8.49-15.19,22.8-23,38.45-23,16.54,0,27.49,7.38,32.63,21.46,8.94-14.08,23.69-21.46,40-21.46C1276,710,1288.32,725.41,1288.32,754.69Z"/><path class="cls-3" d="M1308.11,667.3h12.52a9.77,9.77,0,0,1,9.3,6.79l38.28,119.5,38.28-119.5a9.77,9.77,0,0,1,9.3-6.79h12.54a9.77,9.77,0,0,1,9.19,13.06l-52.24,145.87a9.76,9.76,0,0,1-9.19,6.47h-15.54a9.76,9.76,0,0,1-9.19-6.46l-52.44-145.87A9.77,9.77,0,0,1,1308.11,667.3Z"/><path class="cls-3" d="M1520.93,780h-65.79c2.24,19.45,14.53,29.73,36,29.73a96.46,96.46,0,0,0,20.56-2.22,9.72,9.72,0,0,1,11.52,11.36l-1.68,9c-10.28,4.48-23.92,7.16-38.67,7.16-36.66,0-59.23-23.69-59.23-62.14,0-37.78,23.24-62.81,57.89-62.81,29.5,0,49.17,23.92,49.17,59.68v.52A9.76,9.76,0,0,1,1520.93,780Zm-65.12-20.56h44.93c-1.12-15-8.72-24.14-20.79-24.14C1467.44,735.25,1458.94,744.19,1455.81,759.39Z"/><path class="cls-3" d="M1617.4,819.59l-.83,4.66a9.81,9.81,0,0,1-7,7.7,82.33,82.33,0,0,1-21.95,3c-21,0-35.09-13.63-35.09-34V737h-10.14a9.76,9.76,0,0,1-9.76-9.76V722a9.76,9.76,0,0,1,9.76-9.76h11.25l2.88-21.28a9.77,9.77,0,0,1,9.68-8.45h7a9.77,9.77,0,0,1,9.77,9.76v20h25.77a9.76,9.76,0,0,1,9.76,9.76v5.28a9.76,9.76,0,0,1-9.76,9.76H1583v57.45c0,8.49,5.81,14.31,14.52,14.31a73,73,0,0,0,9.16-.59A9.73,9.73,0,0,1,1617.4,819.59Z"/><path class="cls-3" d="M746.13,672.88v247H474.63a93.37,93.37,0,0,1-93.38-93.37V580.13H663.54a10.8,10.8,0,0,1,10.8,10.79h0a10.8,10.8,0,0,1-10.8,10.79H402.83V826.5a71.87,71.87,0,0,0,71.8,71.79H724.55V672.88a10.79,10.79,0,0,1,10.79-10.79h0A10.79,10.79,0,0,1,746.13,672.88Z"/><path class="cls-2" d="M553,672.9v17.83a24.2,24.2,0,1,1-48.4,0V653.54a8.07,8.07,0,0,1,8.07-8.07h12.9A27.43,27.43,0,0,1,553,672.9Z"/><path class="cls-2" d="M603.91,747.64c-2.61,7.86-8,15.13-22.69,21.3-26.52,11.11-33.62,37.32-31.62,56.37a52.53,52.53,0,0,0,9.11,24.14,3.24,3.24,0,0,1-2.64,5.1h-50a6.09,6.09,0,0,1-6.07-6.08v-5.55a37.65,37.65,0,0,1,4-16.77l2.57-5.1V785.94a49.82,49.82,0,0,1-13-33.72v-14.1a6.92,6.92,0,0,0-6.91-6.91h-9.71a28.87,28.87,0,0,1-28.87-28.77v-9.32a6.46,6.46,0,0,1,6.46-6.46h12.6a13.5,13.5,0,0,0,13.46-13.46,25.51,25.51,0,0,1,10-20.26,2.41,2.41,0,0,1,3.84,1.95V689.7a34.11,34.11,0,0,0,60.25,21.92,3.23,3.23,0,0,1,5.26.45,65.67,65.67,0,0,0,29.9,26.19l12.34,5.36A3.25,3.25,0,0,1,603.91,747.64Z"/><path class="cls-3" d="M679.3,735.24a30.55,30.55,0,0,1-2.08,11.65A20.52,20.52,0,0,1,661,759.75c-.15,0-.25,0-.34,0a2.36,2.36,0,0,0-1.9,3,31.38,31.38,0,0,0,3,6.55,37.33,37.33,0,0,1,4.71,16.89,40.08,40.08,0,0,1-8.35,26.07V832.8a23.78,23.78,0,0,1,2.92,1.55c5.58,3.4,8.63,8.45,8.63,14.27a5.94,5.94,0,0,1-5.92,5.92H584.17a21.13,21.13,0,0,1-14.65-6,42.87,42.87,0,0,1-10.63-23.68c-1.65-15.88,4.17-37.62,26-46.79,25.73-10.78,28.44-26.31,30.68-38.78.39-2.09.73-4,1.16-5.83,2.62-11,9.42-16.26,13.3-18.44,4.52-10.82,15.1-15.48,20.82-16.55l.34,0,.73-.05a5.65,5.65,0,0,1,3.79,1.41,5.9,5.9,0,0,1,2.13,4.51v8.3c8.4,1.65,10.34,4.37,11,5.34.39.58,1.21,1.6,2.13,2.77C676.78,728.2,679.3,731.84,679.3,735.24Z"/><path class="cls-2" d="M606.69,678.16l-14.15.08v-2.83a7.75,7.75,0,0,1,7.68-7.73h6.45Z"/><path class="cls-2" d="M606.77,702.41a7.64,7.64,0,0,1-7.63,7.68l-6.45,0-.05-10.5,14.12,0Z"/><path class="cls-3" d="M620.89,695.9l-14.13,0-14.14,0-6.44,0a7.67,7.67,0,0,1-7.72-7.63v-6.46l14.1-.06,14.15-.05,6.45,0a7.69,7.69,0,0,1,7.68,7.68Z"/></svg>