<svg id="Camada_1" data-name="Camada 1" xmlns="http://www.w3.org/2000/svg" viewBox="0 0 2000 1500"><defs><style>.cls-1{fill:#ad00ff;}.cls-2{fill:#fff;}</style></defs><title>comvet_logo_horizontal_branca_com_fundo_roxo_claro</title><rect class="cls-1" width="2000" height="1500"/><path class="cls-2" d="M854.26,749.56c0-50.75,29.28-84.5,72.87-84.5,14.8,0,30.08,3.23,40.92,8.44a9.64,9.64,0,0,1,5.35,8.72v3.93a9.76,9.76,0,0,1-12.85,9.24,87.68,87.68,0,0,0-26-4.17c-28.39,0-47.62,23.47-47.62,58.56,0,35.54,19.45,59,48.51,59a79.94,79.94,0,0,0,26.93-5.15,9.73,9.73,0,0,1,13.08,9.17v4a9.67,9.67,0,0,1-5.21,8.66c-11.53,5.86-27.82,9.5-42.62,9.5C883.54,834.94,854.26,800.74,854.26,749.56Z"/><path class="cls-2" d="M982.51,772.35c0-37.33,23.24-62.36,58.11-62.36,34.65,0,57.9,25,57.9,62.36,0,37.55-23.25,62.59-57.9,62.59C1005.75,834.94,982.51,809.9,982.51,772.35Zm84.49,0c0-21.68-10.51-36.43-26.6-36.43-15.87,0-26.6,14.75-26.6,36.43,0,21.91,10.73,36.44,26.6,36.44C1056.49,808.79,1067,794.26,1067,772.35Z"/><path class="cls-2" d="M1288.45,754.69v68.25a9.76,9.76,0,0,1-9.76,9.76h-10.88a9.76,9.76,0,0,1-9.76-9.76V759.61c0-15.65-6.25-23.69-18.1-23.69-14.53,0-24.14,12.74-24.14,31.74v55.28a9.76,9.76,0,0,1-9.77,9.76h-10.87a9.76,9.76,0,0,1-9.76-9.76V759.61c0-15.65-6.26-23.69-17.88-23.69-14.75,0-24.14,12.74-24.14,31.74v55.28a9.76,9.76,0,0,1-9.77,9.76h-10.87a9.76,9.76,0,0,1-9.76-9.76V722a9.76,9.76,0,0,1,9.76-9.76h6.87a9.75,9.75,0,0,1,9.65,8.31l1.88,12.47c8.5-15.19,22.8-23,38.45-23,16.54,0,27.49,7.38,32.63,21.46,8.94-14.08,23.7-21.46,40-21.46C1276.16,710,1288.45,725.41,1288.45,754.69Z"/><path class="cls-2" d="M1308.24,667.3h12.52a9.75,9.75,0,0,1,9.3,6.79l38.28,119.5,38.29-119.5a9.75,9.75,0,0,1,9.29-6.79h12.54a9.76,9.76,0,0,1,9.19,13.06l-52.24,145.87a9.76,9.76,0,0,1-9.19,6.47h-15.54a9.77,9.77,0,0,1-9.19-6.46l-52.44-145.87A9.77,9.77,0,0,1,1308.24,667.3Z"/><path class="cls-2" d="M1521.06,780h-65.79c2.24,19.45,14.53,29.73,36,29.73a96.63,96.63,0,0,0,20.57-2.22,9.71,9.71,0,0,1,11.51,11.36l-1.68,9c-10.28,4.48-23.92,7.16-38.67,7.16-36.66,0-59.23-23.69-59.23-62.14,0-37.78,23.24-62.81,57.89-62.81,29.5,0,49.17,23.92,49.17,59.68v.52A9.76,9.76,0,0,1,1521.06,780ZM1456,759.39h44.92c-1.12-15-8.72-24.14-20.78-24.14C1467.57,735.25,1459.07,744.19,1456,759.39Z"/><path class="cls-2" d="M1617.53,819.59l-.83,4.66a9.81,9.81,0,0,1-7,7.7,82.33,82.33,0,0,1-22,3c-21,0-35.09-13.63-35.09-34V737h-10.13a9.77,9.77,0,0,1-9.77-9.76V722a9.77,9.77,0,0,1,9.77-9.76h11.25l2.87-21.28a9.77,9.77,0,0,1,9.68-8.45h7a9.76,9.76,0,0,1,9.77,9.76v20h25.77a9.77,9.77,0,0,1,9.77,9.76v5.28a9.77,9.77,0,0,1-9.77,9.76h-25.77v57.45c0,8.49,5.81,14.31,14.53,14.31a72.92,72.92,0,0,0,9.15-.59A9.73,9.73,0,0,1,1617.53,819.59Z"/><path class="cls-2" d="M746.26,672.88v247H474.76a93.37,93.37,0,0,1-93.38-93.37V580.13h282.3a10.79,10.79,0,0,1,10.79,10.79h0a10.79,10.79,0,0,1-10.79,10.79H403V826.5a71.87,71.87,0,0,0,71.79,71.79H724.68V672.88a10.79,10.79,0,0,1,10.79-10.79h0A10.79,10.79,0,0,1,746.26,672.88Z"/><path class="cls-2" d="M553.17,672.9v17.83a24.21,24.21,0,0,1-48.41,0V653.54a8.07,8.07,0,0,1,8.07-8.07h12.91A27.44,27.44,0,0,1,553.17,672.9Z"/><path class="cls-2" d="M604,747.64c-2.61,7.86-8,15.13-22.68,21.3-26.53,11.11-33.63,37.32-31.63,56.37a52.41,52.41,0,0,0,9.12,24.14,3.24,3.24,0,0,1-2.65,5.1h-50a6.09,6.09,0,0,1-6.06-6.08v-5.55a37.51,37.51,0,0,1,4-16.77l2.56-5.1V785.94a49.82,49.82,0,0,1-13-33.72v-14.1a6.92,6.92,0,0,0-6.9-6.91h-9.72a28.87,28.87,0,0,1-28.86-28.77v-9.32a6.45,6.45,0,0,1,6.45-6.46h12.6a13.5,13.5,0,0,0,13.46-13.46,25.51,25.51,0,0,1,10-20.26,2.41,2.41,0,0,1,3.84,1.95V689.7a34.11,34.11,0,0,0,60.25,21.92,3.23,3.23,0,0,1,5.26.45,65.67,65.67,0,0,0,29.9,26.19l12.34,5.36A3.25,3.25,0,0,1,604,747.64Z"/><path class="cls-2" d="M679.44,735.24a30.36,30.36,0,0,1-2.09,11.65,20.5,20.5,0,0,1-16.26,12.86c-.15,0-.24,0-.34,0a2.35,2.35,0,0,0-1.89,3,30.32,30.32,0,0,0,3,6.55,37.24,37.24,0,0,1,4.7,16.89,40.07,40.07,0,0,1-8.34,26.07V832.8a23.69,23.69,0,0,1,2.91,1.55c5.58,3.4,8.64,8.45,8.64,14.27a6,6,0,0,1-5.92,5.92H584.31a21.13,21.13,0,0,1-14.66-6A42.87,42.87,0,0,1,559,824.89c-1.65-15.88,4.17-37.62,26-46.79,25.72-10.78,28.44-26.31,30.67-38.78.39-2.09.73-4,1.16-5.83,2.63-11,9.42-16.26,13.3-18.44,4.52-10.82,15.1-15.48,20.83-16.55l.34,0,.72-.05a5.65,5.65,0,0,1,3.79,1.41,5.9,5.9,0,0,1,2.13,4.51v8.3c8.4,1.65,10.34,4.37,11,5.34.39.58,1.22,1.6,2.14,2.77C676.91,728.2,679.44,731.84,679.44,735.24Z"/><path class="cls-2" d="M606.82,678.16l-14.15.08v-2.83a7.75,7.75,0,0,1,7.68-7.73h6.45Z"/><path class="cls-2" d="M606.91,702.41a7.65,7.65,0,0,1-7.64,7.68l-6.45,0-.05-10.5,14.12,0Z"/><path class="cls-2" d="M621,695.9l-14.13,0-14.14,0-6.43,0a7.69,7.69,0,0,1-7.73-7.63v-6.46l14.1-.06,14.15-.05,6.45,0a7.69,7.69,0,0,1,7.68,7.68Z"/></svg>