<svg id="Camada_1" data-name="Camada 1" xmlns="http://www.w3.org/2000/svg" viewBox="0 0 2000 1500"><defs><style>.cls-1{fill:#56007f;}.cls-2{fill:#fff;}</style></defs><title>comvet_logo_horizontal_branca_com_fundo_roxo_escuro</title><rect class="cls-1" width="2000" height="1500"/><path class="cls-2" d="M854.13,846c0-10.3,5.49-17.2,13.66-17.2a19,19,0,0,1,9.62,2.54v1.95a18.12,18.12,0,0,0-9.3-2.54c-6.9,0-11.53,6.08-11.53,15.21s4.63,15.38,11.57,15.38a18.35,18.35,0,0,0,9.72-2.77v2a19.51,19.51,0,0,1-10.08,2.72C859.58,863.29,854.13,856.4,854.13,846Z"/><path class="cls-2" d="M890.21,827.44h2.18v35.4h-2.18Z"/><path class="cls-2" d="M906.78,834.93l5.17-7.49h2.77l-5.9,7.49Zm.14,4.08h2.17v23.83h-2.17Z"/><path class="cls-2" d="M942.59,847.82v15h-2.18V848.32c0-5.18-2.13-7.85-6.26-7.85-5.08,0-8.44,3.49-8.44,8.8v13.57h-2.18V839h1.91l.18,5.54c1.4-3.68,4.44-6,9.26-6C940,838.56,942.59,841.74,942.59,847.82Z"/><path class="cls-2" d="M956.8,827.44h2.27v6H956.8Zm0,11.57H959v23.83h-2.18Z"/><path class="cls-2" d="M972.1,850.9c0-7.39,4.17-12.34,10.48-12.34a15,15,0,0,1,6.76,1.59v2a14.7,14.7,0,0,0-6.53-1.63c-5,0-8.4,4.22-8.4,10.48s3.54,10.44,8.8,10.44a12.89,12.89,0,0,0,6.59-1.86v1.9a13.77,13.77,0,0,1-7,1.86C976.41,863.29,972.1,858.35,972.1,850.9Z"/><path class="cls-2" d="M1018.57,846.91v15.93h-1.9l-.23-6.13a10,10,0,0,1-9.53,6.58c-4.54,0-6.85-2.27-6.85-6.62,0-4.63,3.13-7.17,8.8-7.13h7.53v-2.18c0-4.58-2.4-6.94-7-6.94A17.05,17.05,0,0,0,1002,842v-1.86a17.3,17.3,0,0,1,7.76-1.59C1015.58,838.56,1018.57,841.42,1018.57,846.91Zm-2.18,5.08v-.82h-7.17c-4.45,0-6.85,1.87-6.85,5.36s1.77,5.09,5.22,5.09C1011.72,861.62,1016.39,858.17,1016.39,852Z"/><path class="cls-2" d="M1046.81,829.25h2.49l11.44,30.87,11.44-30.87h2.54l-12.89,33.59h-2.18Z"/><path class="cls-2" d="M1101.91,851.17h-17.29c.18,6.72,3.36,10.26,9.26,10.26a15.81,15.81,0,0,0,7.12-1.63l-.32,2a17.27,17.27,0,0,1-7.26,1.54c-7.17,0-11.07-4.44-11.07-12.7,0-7.22,4.13-12,10.35-12,5.53,0,9.21,4.72,9.21,11.8Zm-17.25-1.63h15.07c-.09-5.53-3-9.12-7.13-9.12C1088.07,840.42,1085,844,1084.66,849.54Z"/><path class="cls-2" d="M1126.42,860.52l-.37,1.87a12.9,12.9,0,0,1-4.94.9c-3.18,0-5.31-2-5.31-5V840.87h-4.27V839h4.31l.28-6.49H1118V839h8.13v1.86H1118v17a3.43,3.43,0,0,0,3.73,3.5A13,13,0,0,0,1126.42,860.52Z"/><path class="cls-2" d="M1155.38,851.17h-17.3c.19,6.72,3.36,10.26,9.27,10.26a15.87,15.87,0,0,0,7.12-1.63l-.32,2a17.31,17.31,0,0,1-7.26,1.54c-7.17,0-11.08-4.44-11.08-12.7,0-7.22,4.13-12,10.35-12,5.54,0,9.22,4.72,9.22,11.8Zm-17.25-1.63h15.07c-.09-5.53-3-9.12-7.13-9.12C1141.54,840.42,1138.45,844,1138.13,849.54Z"/><path class="cls-2" d="M1181.84,838.56v2.26h-1.91c-5.76,0-9.62,4.09-9.62,10.22v11.8h-2.18V839H1170l.23,6.72c1.45-4.41,4.71-7.17,10-7.17Z"/><path class="cls-2" d="M1193.09,827.44h2.27v6h-2.27Zm.05,11.57h2.18v23.83h-2.18Z"/><path class="cls-2" d="M1228.82,847.82v15h-2.18V848.32c0-5.18-2.14-7.85-6.27-7.85-5.08,0-8.44,3.49-8.44,8.8v13.57h-2.18V839h1.91l.18,5.54c1.41-3.68,4.45-6,9.26-6C1226.18,838.56,1228.82,841.74,1228.82,847.82Z"/><path class="cls-2" d="M1259.55,846.91v15.93h-1.91l-.23-6.13a10,10,0,0,1-9.53,6.58c-4.54,0-6.86-2.27-6.86-6.62,0-4.63,3.14-7.17,8.81-7.13h7.53v-2.18c0-4.58-2.4-6.94-7-6.94a17.09,17.09,0,0,0-7.4,1.59v-1.86a17.32,17.32,0,0,1,7.77-1.59C1256.55,838.56,1259.55,841.42,1259.55,846.91Zm-2.19,5.08v-.82h-7.16c-4.45,0-6.86,1.87-6.86,5.36s1.77,5.09,5.22,5.09C1252.69,861.62,1257.36,858.17,1257.36,852Zm-5.49-17.06h-2l5.18-7.49h2.77Z"/><path class="cls-2" d="M1287.41,838.56v2.26h-1.9c-5.77,0-9.63,4.09-9.63,10.22v11.8h-2.17V839h1.9l.23,6.72c1.45-4.41,4.72-7.17,10-7.17Z"/><path class="cls-2" d="M1298.67,827.44h2.27v6h-2.27Zm0,11.57h2.19v23.83h-2.19Z"/><path class="cls-2" d="M1331.9,846.91v15.93H1330l-.23-6.13a10,10,0,0,1-9.53,6.58c-4.54,0-6.86-2.27-6.86-6.62,0-4.63,3.14-7.17,8.81-7.13h7.54v-2.18c0-4.58-2.41-6.94-7-6.94a17.09,17.09,0,0,0-7.4,1.59v-1.86a17.32,17.32,0,0,1,7.77-1.59C1328.9,838.56,1331.9,841.42,1331.9,846.91Zm-2.18,5.08v-.82h-7.17c-4.45,0-6.86,1.87-6.86,5.36s1.77,5.09,5.22,5.09C1325,861.62,1329.72,858.17,1329.72,852Z"/><path class="cls-2" d="M1382.82,851.17h-17.29c.18,6.72,3.36,10.26,9.26,10.26a15.81,15.81,0,0,0,7.12-1.63l-.31,2a17.36,17.36,0,0,1-7.27,1.54c-7.17,0-11.07-4.44-11.07-12.7,0-7.22,4.13-12,10.35-12,5.53,0,9.21,4.72,9.21,11.8Zm-17.25-1.63h15.07c-.09-5.53-3-9.12-7.12-9.12C1369,840.42,1365.89,844,1365.57,849.54Z"/><path class="cls-2" d="M1437.33,839.2c0,6.08-4,10.12-10.12,10.12h-9.94v13.52h-2.36V829.25h12.26C1433.25,829.25,1437.33,833.25,1437.33,839.2Zm-2.4.08c0-4.85-3.27-8.08-8.13-8.08h-9.53v16.16h9.53C1431.66,847.36,1434.93,844.14,1434.93,839.28Z"/><path class="cls-2" d="M1467.47,851.17h-17.29c.18,6.72,3.36,10.26,9.26,10.26a15.81,15.81,0,0,0,7.12-1.63l-.31,2a17.34,17.34,0,0,1-7.26,1.54c-7.18,0-11.08-4.44-11.08-12.7,0-7.22,4.13-12,10.35-12,5.54,0,9.21,4.72,9.21,11.8Zm-17.25-1.63h15.07c-.09-5.53-3-9.12-7.12-9.12C1453.63,840.42,1450.54,844,1450.22,849.54Z"/><path class="cls-2" d="M1492,860.52l-.36,1.87a12.91,12.91,0,0,1-4.95.9c-3.18,0-5.31-2-5.31-5V840.87h-4.26V839h4.31l.27-6.49h1.86V839h8.12v1.86h-8.12v17a3.43,3.43,0,0,0,3.72,3.5A12.92,12.92,0,0,0,1492,860.52Z"/><path class="cls-2" d="M1501.56,861.93l-.32-1.81a26.33,26.33,0,0,0,8.35,1.4c4.18,0,7-1.81,7-4.63s-2.09-3.81-4.63-4.58L1507.6,851c-3.18-.91-5.77-2.54-5.77-6.18s3.23-6.3,8.08-6.3A21.79,21.79,0,0,1,1517,840v1.81a20.12,20.12,0,0,0-6.86-1.49c-3.63,0-6.08,1.77-6.08,4.36s1.86,3.76,4.27,4.44l4.35,1.27c3.23,1,6,2.41,6,6.31s-3.58,6.58-9,6.58A23.41,23.41,0,0,1,1501.56,861.93Z"/><path class="cls-2" d="M1550.26,847.82v15h-2.18V848.32c0-5.18-2.13-7.85-6.26-7.85-5,0-8.44,3.54-8.44,8.8v13.57h-2.18v-35.4h2.18v16.92c1.41-3.58,4.45-5.8,9.17-5.8C1547.63,838.56,1550.26,841.74,1550.26,847.82Z"/><path class="cls-2" d="M1563.06,851c0-7.44,4.27-12.39,10.67-12.39s10.62,5,10.62,12.39-4.27,12.34-10.62,12.34S1563.06,858.35,1563.06,851Zm19,0c0-6.26-3.35-10.48-8.35-10.48s-8.3,4.22-8.3,10.48,3.35,10.44,8.3,10.44S1582,857.21,1582,851Z"/><path class="cls-2" d="M1618.48,851c0,7.36-4,12.3-10,12.3a9,9,0,0,1-9-6.12v15.65h-2.18V839h2l.18,5.9a8.93,8.93,0,0,1,9-6.35C1614.49,838.56,1618.48,843.51,1618.48,851Zm-2.31,0c0-6.3-3.32-10.52-8.31-10.52s-8.35,4.22-8.35,10.48,3.31,10.44,8.35,10.44S1616.17,857.26,1616.17,851Z"/><path class="cls-2" d="M854.13,710.92c0-50.74,29.28-84.49,72.87-84.49,14.8,0,30.08,3.22,40.92,8.43a9.63,9.63,0,0,1,5.34,8.73v3.93a9.76,9.76,0,0,1-12.85,9.24,87.32,87.32,0,0,0-26-4.18c-28.38,0-47.61,23.47-47.61,58.56,0,35.54,19.45,59,48.51,59A80.17,80.17,0,0,0,962.2,765a9.73,9.73,0,0,1,13.08,9.16v4a9.67,9.67,0,0,1-5.22,8.67c-11.52,5.85-27.81,9.49-42.62,9.49C883.41,796.3,854.13,762.1,854.13,710.92Z"/><path class="cls-2" d="M982.38,733.72c0-37.33,23.24-62.37,58.11-62.37,34.65,0,57.89,25,57.89,62.37,0,37.55-23.24,62.58-57.89,62.58C1005.62,796.3,982.38,771.27,982.38,733.72Zm84.48,0c0-21.68-10.5-36.44-26.59-36.44-15.87,0-26.6,14.76-26.6,36.44,0,21.9,10.73,36.43,26.6,36.43C1056.36,770.15,1066.86,755.62,1066.86,733.72Z"/><path class="cls-2" d="M1288.32,716.06V784.3a9.76,9.76,0,0,1-9.77,9.77h-10.87a9.76,9.76,0,0,1-9.76-9.77V721c0-15.65-6.26-23.7-18.11-23.7-14.52,0-24.14,12.74-24.14,31.75V784.3a9.76,9.76,0,0,1-9.76,9.77H1195a9.76,9.76,0,0,1-9.76-9.77V721c0-15.65-6.26-23.7-17.89-23.7-14.75,0-24.14,12.74-24.14,31.75V784.3a9.76,9.76,0,0,1-9.76,9.77h-10.87a9.76,9.76,0,0,1-9.76-9.77V683.36a9.76,9.76,0,0,1,9.76-9.77h6.87a9.77,9.77,0,0,1,9.65,8.31l1.88,12.48c8.49-15.2,22.8-23,38.45-23,16.54,0,27.49,7.38,32.63,21.46,8.94-14.08,23.69-21.46,40-21.46C1276,671.35,1288.32,686.78,1288.32,716.06Z"/><path class="cls-2" d="M1308.11,628.67h12.52a9.77,9.77,0,0,1,9.3,6.78L1368.21,755l38.28-119.5a9.77,9.77,0,0,1,9.3-6.78h12.54a9.76,9.76,0,0,1,9.19,13.05L1385.28,787.6a9.76,9.76,0,0,1-9.19,6.47h-15.54a9.77,9.77,0,0,1-9.19-6.46l-52.44-145.88A9.76,9.76,0,0,1,1308.11,628.67Z"/><path class="cls-2" d="M1520.93,741.31h-65.79c2.24,19.45,14.53,29.73,36,29.73a96.46,96.46,0,0,0,20.56-2.22,9.73,9.73,0,0,1,11.52,11.37l-1.68,9c-10.28,4.47-23.92,7.15-38.67,7.15-36.66,0-59.23-23.69-59.23-62.14,0-37.77,23.24-62.81,57.89-62.81,29.5,0,49.17,23.92,49.17,59.69v.51A9.76,9.76,0,0,1,1520.93,741.31Zm-65.12-20.56h44.93c-1.12-15-8.72-24.13-20.79-24.13C1467.44,696.62,1458.94,705.55,1455.81,720.75Z"/><path class="cls-2" d="M1617.4,781l-.83,4.66a9.84,9.84,0,0,1-7,7.7,82.74,82.74,0,0,1-21.95,3c-21,0-35.09-13.63-35.09-34V698.4h-10.14a9.76,9.76,0,0,1-9.76-9.76v-5.28a9.76,9.76,0,0,1,9.76-9.77h11.25l2.88-21.27a9.77,9.77,0,0,1,9.68-8.46h7a9.77,9.77,0,0,1,9.77,9.77v20h25.77a9.76,9.76,0,0,1,9.76,9.77v5.28a9.76,9.76,0,0,1-9.76,9.76H1583v57.45c0,8.49,5.81,14.3,14.52,14.3a72.92,72.92,0,0,0,9.16-.58A9.72,9.72,0,0,1,1617.4,781Z"/><path class="cls-2" d="M746.13,672.51v247H474.63a93.38,93.38,0,0,1-93.38-93.38V579.75H663.54a10.8,10.8,0,0,1,10.8,10.79h0a10.8,10.8,0,0,1-10.8,10.79H402.83V826.12a71.88,71.88,0,0,0,71.8,71.8H724.55V672.51a10.79,10.79,0,0,1,10.79-10.79h0A10.79,10.79,0,0,1,746.13,672.51Z"/><path class="cls-2" d="M553,672.52v17.83a24.2,24.2,0,1,1-48.4,0V653.16a8.07,8.07,0,0,1,8.07-8.07h12.9A27.44,27.44,0,0,1,553,672.52Z"/><path class="cls-2" d="M603.91,747.26c-2.61,7.86-8,15.14-22.69,21.3-26.52,11.12-33.62,37.32-31.62,56.38a52.53,52.53,0,0,0,9.11,24.14,3.24,3.24,0,0,1-2.64,5.1h-50a6.1,6.1,0,0,1-6.07-6.09v-5.55a37.64,37.64,0,0,1,4-16.76l2.57-5.1V785.57a49.84,49.84,0,0,1-13-33.72V737.74a6.92,6.92,0,0,0-6.91-6.9h-9.71a28.87,28.87,0,0,1-28.87-28.77v-9.33a6.46,6.46,0,0,1,6.46-6.45h12.6a13.5,13.5,0,0,0,13.46-13.46,25.48,25.48,0,0,1,10-20.26,2.41,2.41,0,0,1,3.84,1.95v34.8a34.11,34.11,0,0,0,60.25,21.93,3.23,3.23,0,0,1,5.26.45,65.73,65.73,0,0,0,29.9,26.19l12.34,5.36A3.24,3.24,0,0,1,603.91,747.26Z"/><path class="cls-2" d="M679.3,734.87a30.55,30.55,0,0,1-2.08,11.65A20.55,20.55,0,0,1,661,759.38c-.15,0-.25,0-.34,0a2.36,2.36,0,0,0-1.9,3,31.85,31.85,0,0,0,3,6.55,37.33,37.33,0,0,1,4.71,16.89,40,40,0,0,1-8.35,26.06v20.48A25.37,25.37,0,0,1,661,834c5.58,3.39,8.63,8.44,8.63,14.27a5.94,5.94,0,0,1-5.92,5.92H584.17a21.13,21.13,0,0,1-14.65-6,42.92,42.92,0,0,1-10.63-23.69c-1.65-15.87,4.17-37.61,26-46.79,25.73-10.77,28.44-26.3,30.68-38.78.39-2.08.73-4,1.16-5.82,2.62-11,9.42-16.26,13.3-18.44,4.52-10.83,15.1-15.49,20.82-16.55l.34,0,.73-.05a5.6,5.6,0,0,1,3.79,1.41A5.87,5.87,0,0,1,657.8,704v8.3c8.4,1.65,10.34,4.37,11,5.34.39.58,1.21,1.6,2.13,2.77C676.78,727.83,679.3,731.47,679.3,734.87Z"/><path class="cls-2" d="M606.69,677.78l-14.15.08V675a7.75,7.75,0,0,1,7.68-7.73h6.45Z"/><path class="cls-2" d="M606.77,702a7.63,7.63,0,0,1-7.63,7.68l-6.45,0-.05-10.5,14.12,0Z"/><path class="cls-2" d="M620.89,695.53l-14.13,0-14.14.05-6.44,0a7.67,7.67,0,0,1-7.72-7.63v-6.46l14.1-.06,14.15-.05,6.45,0a7.69,7.69,0,0,1,7.68,7.68Z"/></svg>